# Blender v2.78 (sub 0) OBJ File: ''
# www.blender.org
mtllib Net.mtl
o Net_Cylinder
v 0.007247 0.284870 -0.001945
v 0.004308 0.284870 0.240469
v 0.002106 0.279795 0.239169
v 0.005031 0.279518 -0.001972
v -0.003239 0.277693 0.238577
v -0.000320 0.277301 -0.002036
v -0.008597 0.279795 0.239040
v -0.005671 0.279518 -0.002101
v -0.010828 0.284870 0.240285
v -0.007888 0.284870 -0.002128
v -0.008627 0.289944 0.241585
v -0.005671 0.290221 -0.002101
v -0.003283 0.292046 0.242177
v -0.000320 0.292438 -0.002036
v 0.002075 0.289944 0.241715
v 0.005031 0.290221 -0.001972
v -0.008908 0.247572 0.264721
v -0.011087 0.243948 0.261610
v -0.010069 0.000202 0.261622
v -0.008193 0.000165 0.265114
v -0.008833 0.240463 0.258550
v -0.003466 0.239056 0.257337
v -0.003460 0.000254 0.256795
v -0.008108 0.000239 0.258176
v -0.003571 0.249073 0.266062
v -0.003579 0.000150 0.266607
v 0.001869 0.240463 0.258680
v 0.001153 0.000239 0.258288
v 0.004048 0.243948 0.261793
v 0.001794 0.247572 0.264850
v 0.001069 0.000165 0.265227
v 0.003030 0.000202 0.261781
v -0.003377 0.263550 0.249964
v -0.008743 0.264952 0.251115
v 0.004141 0.268357 0.254213
v 0.001959 0.264952 0.251245
v 0.001888 0.271773 0.257140
v -0.008815 0.271773 0.257010
v -0.003478 0.273188 0.258305
v -0.010995 0.268357 0.254029
v 0.007957 0.279795 -0.243112
v 0.010188 0.284870 -0.244358
v 0.002598 0.277693 -0.242650
v -0.002745 0.279795 -0.243242
v -0.004948 0.284870 -0.244542
v -0.002716 0.289944 -0.245787
v 0.002643 0.292046 -0.246250
v 0.007988 0.289944 -0.245658
v -0.002434 0.247572 -0.268923
v -0.001710 0.000165 -0.269300
v -0.003669 0.000202 -0.265854
v -0.004688 0.243948 -0.265866
v -0.002510 0.240463 -0.262753
v -0.001793 0.000239 -0.262361
v 0.002819 0.000254 -0.260868
v 0.002826 0.239056 -0.261410
v 0.002932 0.249073 -0.270135
v 0.002939 0.000150 -0.270680
v 0.007468 0.000239 -0.262249
v 0.008194 0.240463 -0.262623
v 0.010448 0.243948 -0.265682
v 0.009429 0.000202 -0.265695
v 0.007553 0.000165 -0.269187
v 0.008267 0.247572 -0.268793
v -0.002600 0.264952 -0.255318
v 0.002736 0.263550 -0.254036
v 0.008102 0.264952 -0.255188
v 0.010355 0.268357 -0.258102
v 0.008174 0.271773 -0.261083
v 0.002839 0.273188 -0.262378
v -0.002528 0.271773 -0.261213
v -0.004781 0.268357 -0.258286
v 0.129694 0.240636 0.233637
v 0.003787 0.240151 0.258837
v 0.004303 0.000406 0.262340
v 0.138387 0.001101 0.235729
v 0.004162 0.281035 0.201150
v 0.003681 0.280534 0.219247
v 0.003524 0.281728 0.239086
v 0.085267 0.274776 0.216266
v 0.000773 0.265131 0.253962
v 0.102621 0.262079 0.226467
v 0.103292 0.262079 0.132729
v 0.128859 0.240636 0.139159
v 0.085714 0.274776 0.128596
v 0.004043 0.281035 0.119175
v 0.137684 0.001101 0.140451
v 0.127653 0.240636 -0.002951
v 0.136673 0.001101 -0.002842
v 0.004581 0.281035 -0.004444
v 0.086404 0.274776 -0.003451
v 0.104252 0.262079 -0.003235
v 0.135373 0.240636 -0.234487
v 0.144113 0.001101 -0.236367
v 0.010713 0.000406 -0.266223
v 0.010114 0.240151 -0.262734
v 0.009089 0.281035 -0.205054
v 0.090537 0.274776 -0.218199
v 0.009372 0.281728 -0.242995
v 0.009048 0.280534 -0.223157
v 0.108133 0.262079 -0.227976
v 0.006982 0.265131 -0.257933
v 0.106530 0.262079 -0.134249
v 0.132247 0.240636 -0.140057
v 0.088857 0.274776 -0.130543
v 0.006982 0.281035 -0.123106
v 0.141099 0.001101 -0.141134
v 0.127593 0.240636 0.001982
v 0.136614 0.001101 0.002091
v 0.004522 0.281035 0.000489
v 0.086343 0.274776 0.001482
v 0.104191 0.262079 0.001698
v 0.129694 0.240636 0.233637
v 0.003787 0.240151 0.258837
v 0.004303 0.000406 0.262340
v 0.138387 0.001101 0.235729
v 0.004162 0.281035 0.201150
v 0.003681 0.280534 0.219247
v 0.003524 0.281728 0.239086
v 0.085267 0.274776 0.216266
v 0.000773 0.265131 0.253962
v 0.102621 0.262079 0.226467
v 0.103292 0.262079 0.132729
v 0.128859 0.240636 0.139159
v 0.085714 0.274776 0.128596
v 0.004043 0.281035 0.119175
v 0.137684 0.001101 0.140451
v 0.127653 0.240636 -0.002951
v 0.136673 0.001101 -0.002842
v 0.004581 0.281035 -0.004444
v 0.086404 0.274776 -0.003451
v 0.104252 0.262079 -0.003235
v 0.135373 0.240636 -0.234487
v 0.144113 0.001101 -0.236367
v 0.010713 0.000406 -0.266223
v 0.010114 0.240151 -0.262734
v 0.009089 0.281035 -0.205054
v 0.090537 0.274776 -0.218199
v 0.009372 0.281728 -0.242995
v 0.009048 0.280534 -0.223157
v 0.108133 0.262079 -0.227976
v 0.006982 0.265131 -0.257933
v 0.106530 0.262079 -0.134249
v 0.132247 0.240636 -0.140057
v 0.088857 0.274776 -0.130543
v 0.006982 0.281035 -0.123106
v 0.141099 0.001101 -0.141134
v 0.127593 0.240636 0.001982
v 0.136614 0.001101 0.002091
v 0.004522 0.281035 0.000489
v 0.086343 0.274776 0.001482
v 0.104191 0.262079 0.001698
vt 1.0000 0.5000
vt 1.0000 1.0000
vt 0.8750 1.0000
vt 0.8750 0.5000
vt 0.7500 1.0000
vt 0.7500 0.5000
vt 0.6250 1.0000
vt 0.6250 0.5000
vt 0.5000 1.0000
vt 0.5000 0.5000
vt 0.3750 1.0000
vt 0.3750 0.5000
vt 0.2500 1.0000
vt 0.2500 0.5000
vt 0.1250 1.0000
vt 0.1250 0.5000
vt 0.0000 1.0000
vt 0.0000 0.5000
vt 0.3750 1.0000
vt 0.5000 1.0000
vt 0.5000 1.0000
vt 0.3750 1.0000
vt 0.6250 1.0000
vt 0.7500 1.0000
vt 0.7500 1.0000
vt 0.6250 1.0000
vt 0.2500 1.0000
vt 0.2500 1.0000
vt 0.8750 1.0000
vt 0.8750 1.0000
vt 0.0000 1.0000
vt 0.1250 1.0000
vt 0.1250 1.0000
vt 0.0000 1.0000
vt 0.7500 1.0000
vt 0.6250 1.0000
vt 1.0000 1.0000
vt 0.8750 1.0000
vt 0.1250 1.0000
vt 0.0000 1.0000
vt 0.3750 1.0000
vt 0.2500 1.0000
vt 0.5000 1.0000
vt 1.0000 1.0000
vt 1.0000 1.0000
vt 0.8750 1.0000
vt 1.0000 1.0000
vt 0.7500 1.0000
vt 0.6250 1.0000
vt 0.5000 1.0000
vt 0.3750 1.0000
vt 0.2500 1.0000
vt 0.1250 1.0000
vt 0.0000 1.0000
vt 0.3750 1.0000
vt 0.3750 1.0000
vt 0.5000 1.0000
vt 0.5000 1.0000
vt 0.6250 1.0000
vt 0.6250 1.0000
vt 0.7500 1.0000
vt 0.7500 1.0000
vt 0.2500 1.0000
vt 0.2500 1.0000
vt 0.8750 1.0000
vt 0.8750 1.0000
vt 0.0000 1.0000
vt 0.0000 1.0000
vt 0.1250 1.0000
vt 0.1250 1.0000
vt 0.6250 1.0000
vt 0.7500 1.0000
vt 0.8750 1.0000
vt 1.0000 1.0000
vt 0.0000 1.0000
vt 0.1250 1.0000
vt 0.2500 1.0000
vt 0.3750 1.0000
vt 0.5000 1.0000
vt 1.0000 1.0000
vt 1.0000 1.0000
vt 0.7686 0.3868
vt 0.7684 0.2522
vt 0.9918 0.2512
vt 0.9920 0.3944
vt 0.7090 0.7703
vt 0.7094 0.8354
vt 0.7101 0.9068
vt 0.5658 0.8224
vt 0.4922 0.7903
vt 0.6325 0.8101
vt 0.6293 0.8423
vt 0.4765 0.8129
vt 0.7725 0.0690
vt 0.9253 0.0642
vt 0.9238 0.1341
vt 0.7847 0.1324
vt 0.5289 0.1096
vt 0.5292 0.4467
vt 0.4713 0.4532
vt 0.4736 0.1319
vt 0.6396 0.5071
vt 0.6396 0.8224
vt 0.6030 0.8586
vt 0.6026 0.5214
vt 0.7099 0.4755
vt 0.5658 0.5071
vt 0.0295 0.3765
vt 0.0314 0.0368
vt 0.4630 0.0316
vt 0.4611 0.3743
vt 0.0304 0.7906
vt 0.0305 0.3993
vt 0.4620 0.3958
vt 0.4620 0.7904
vt 0.6330 0.0397
vt 0.6328 0.4755
vt 0.4984 0.5071
vt 0.4984 0.0410
vt 0.5658 0.0410
vt 0.5289 0.5214
vt 0.5285 0.0412
vt 0.5285 0.0463
vt 0.5289 0.5152
vt 0.4736 0.5238
vt 0.4723 0.0465
vt 0.7686 0.3868
vt 0.9920 0.3944
vt 0.9918 0.2512
vt 0.7684 0.2522
vt 0.7090 0.7703
vt 0.5658 0.8224
vt 0.7101 0.9068
vt 0.7094 0.8354
vt 0.4922 0.7903
vt 0.4765 0.8129
vt 0.6293 0.8423
vt 0.6325 0.8101
vt 0.7725 0.0690
vt 0.7847 0.1324
vt 0.9238 0.1341
vt 0.9253 0.0642
vt 0.5289 0.1096
vt 0.4736 0.1319
vt 0.4713 0.4532
vt 0.5292 0.4467
vt 0.6396 0.5071
vt 0.6026 0.5214
vt 0.6030 0.8586
vt 0.6396 0.8224
vt 0.7099 0.4755
vt 0.5658 0.5071
vt 0.0295 0.3765
vt 0.4611 0.3743
vt 0.4630 0.0316
vt 0.0314 0.0368
vt 0.0304 0.7906
vt 0.4620 0.7904
vt 0.4620 0.3958
vt 0.0305 0.3993
vt 0.6330 0.0397
vt 0.4984 0.0410
vt 0.4984 0.5071
vt 0.6328 0.4755
vt 0.5658 0.0410
vt 0.5285 0.0412
vt 0.5289 0.5214
vt 0.5285 0.0463
vt 0.4723 0.0465
vt 0.4736 0.5238
vt 0.5289 0.5152
vt 0.7686 0.3868
vt 0.9920 0.3944
vt 0.9918 0.2512
vt 0.7684 0.2522
vt 0.7090 0.7703
vt 0.5658 0.8224
vt 0.7101 0.9068
vt 0.7094 0.8354
vt 0.4922 0.7903
vt 0.4765 0.8129
vt 0.6293 0.8423
vt 0.6325 0.8101
vt 0.7725 0.0690
vt 0.7847 0.1324
vt 0.9238 0.1341
vt 0.9253 0.0642
vt 0.5289 0.1096
vt 0.4736 0.1319
vt 0.4713 0.4532
vt 0.5292 0.4467
vt 0.6396 0.5071
vt 0.6026 0.5214
vt 0.6030 0.8586
vt 0.6396 0.8224
vt 0.7099 0.4755
vt 0.5658 0.5071
vt 0.0295 0.3765
vt 0.4611 0.3743
vt 0.4630 0.0316
vt 0.0314 0.0368
vt 0.0304 0.7906
vt 0.4620 0.7904
vt 0.4620 0.3958
vt 0.0305 0.3993
vt 0.6330 0.0397
vt 0.4984 0.0410
vt 0.4984 0.5071
vt 0.6328 0.4755
vt 0.5658 0.0410
vt 0.5285 0.0412
vt 0.5289 0.5214
vt 0.5285 0.0463
vt 0.4723 0.0465
vt 0.4736 0.5238
vt 0.5289 0.5152
vt 0.7686 0.3868
vt 0.7684 0.2522
vt 0.9918 0.2512
vt 0.9920 0.3944
vt 0.7090 0.7703
vt 0.7094 0.8354
vt 0.7101 0.9068
vt 0.5658 0.8224
vt 0.4922 0.7903
vt 0.6325 0.8101
vt 0.6293 0.8423
vt 0.4765 0.8129
vt 0.7725 0.0690
vt 0.9253 0.0642
vt 0.9238 0.1341
vt 0.7847 0.1324
vt 0.5289 0.1096
vt 0.5292 0.4467
vt 0.4713 0.4532
vt 0.4736 0.1319
vt 0.6396 0.5071
vt 0.6396 0.8224
vt 0.6030 0.8586
vt 0.6026 0.5214
vt 0.7099 0.4755
vt 0.5658 0.5071
vt 0.0295 0.3765
vt 0.0314 0.0368
vt 0.4630 0.0316
vt 0.4611 0.3743
vt 0.0304 0.7906
vt 0.0305 0.3993
vt 0.4620 0.3958
vt 0.4620 0.7904
vt 0.6330 0.0397
vt 0.6328 0.4755
vt 0.4984 0.5071
vt 0.4984 0.0410
vt 0.5658 0.0410
vt 0.5289 0.5214
vt 0.5285 0.0412
vt 0.5285 0.0463
vt 0.5289 0.5152
vt 0.4736 0.5238
vt 0.4723 0.0465
vn 0.9202 -0.3913 0.0112
vn 0.9202 -0.3913 0.0114
vn 0.3741 -0.9274 0.0045
vn 0.3741 -0.9274 0.0058
vn -0.3741 -0.9274 -0.0045
vn -0.3741 -0.9274 -0.0033
vn -0.9202 -0.3914 -0.0112
vn -0.9202 -0.3913 -0.0109
vn -0.9202 0.3914 -0.0112
vn -0.9201 0.3914 -0.0109
vn -0.3742 0.9273 -0.0045
vn -0.3743 0.9273 -0.0033
vn 0.3742 0.9273 0.0045
vn 0.3742 0.9273 0.0058
vn 0.9202 0.3913 0.0112
vn 0.9202 0.3913 0.0114
vn -0.8515 -0.0026 0.5243
vn -0.2506 0.0015 -0.9681
vn -0.2741 0.0014 0.9617
vn 0.2739 0.0015 -0.9617
vn 0.8385 -0.0026 0.5449
vn -0.8399 -0.0026 -0.5427
vn 0.2508 0.0014 0.9680
vn -0.3066 -0.5970 -0.7413
vn 0.8940 -0.2901 -0.3415
vn 0.8867 0.2922 0.3583
vn -0.3290 0.6144 0.7171
vn -0.8854 -0.2901 -0.3631
vn 0.3245 -0.5970 -0.7336
vn 0.3115 0.6145 0.7249
vn -0.8951 0.2923 0.3366
vn 0.8746 -0.1453 -0.4625
vn 0.2976 -0.2773 -0.9135
vn -0.2753 -0.2773 -0.9205
vn -0.8632 -0.1453 -0.4835
vn -0.8770 0.1472 0.4574
vn -0.3037 0.2916 0.9071
vn 0.2817 0.2915 0.9141
vn 0.8656 0.1472 0.4786
vn 0.8528 -0.0026 -0.5222
vn 0.9202 -0.3913 0.0109
vn 0.3741 -0.9274 0.0032
vn -0.3741 -0.9274 -0.0058
vn -0.9201 -0.3914 -0.0114
vn -0.9202 0.3914 -0.0114
vn -0.3742 0.9273 -0.0058
vn 0.3742 0.9273 0.0033
vn 0.9202 0.3913 0.0109
vn -0.8386 -0.0026 -0.5448
vn -0.2739 0.0015 0.9617
vn -0.2508 0.0014 -0.9680
vn 0.2505 0.0015 0.9681
vn 0.8515 -0.0026 -0.5244
vn -0.8529 -0.0026 0.5221
vn 0.2743 0.0014 -0.9617
vn -0.3246 -0.5970 0.7336
vn 0.8854 -0.2902 0.3631
vn 0.8951 0.2923 -0.3367
vn -0.3115 0.6144 -0.7248
vn -0.8940 -0.2902 0.3415
vn 0.3066 -0.5970 0.7413
vn 0.3290 0.6144 -0.7171
vn -0.8867 0.2923 -0.3583
vn 0.8633 -0.1453 0.4834
vn 0.2754 -0.2773 0.9205
vn -0.2977 -0.2773 0.9135
vn -0.8746 -0.1453 0.4625
vn -0.8656 0.1473 -0.4787
vn -0.2817 0.2915 -0.9141
vn 0.3038 0.2915 -0.9070
vn 0.8769 0.1473 -0.4576
vn 0.8399 -0.0026 0.5427
vn 0.1953 0.0152 0.9806
vn 0.0698 0.9974 -0.0170
vn 0.2248 0.6959 0.6820
vn 0.2132 0.3725 0.9032
vn 0.6317 0.7752 -0.0006
vn 0.5868 0.8097 0.0036
vn 0.5870 0.8096 0.0036
vn 0.5825 0.8128 0.0036
vn 0.0765 0.9971 0.0003
vn 0.0767 0.9971 0.0001
vn 0.0765 0.9971 0.0002
vn 0.9993 0.0368 -0.0079
vn 0.9993 0.0365 -0.0081
vn 0.9993 0.0372 -0.0078
vn 0.0763 0.9971 0.0004
vn 0.5823 0.8130 0.0036
vn 0.6589 0.7522 -0.0006
vn 0.2191 0.0152 -0.9756
vn 0.0693 0.9974 0.0187
vn 0.2413 0.6959 -0.6764
vn 0.2350 0.3725 -0.8978
vn 0.6315 0.7752 0.0159
vn 0.5867 0.8097 0.0103
vn 0.5825 0.8128 0.0103
vn 0.5869 0.8096 0.0106
vn 0.0765 0.9971 0.0016
vn 0.0766 0.9971 0.0017
vn 0.9988 0.0368 0.0322
vn 0.9988 0.0365 0.0323
vn 0.9988 0.0372 0.0320
vn 0.0763 0.9971 0.0015
vn 0.5822 0.8130 0.0105
vn 0.6587 0.7523 0.0166
vn -0.1953 -0.0152 -0.9806
vn -0.0698 -0.9974 0.0170
vn -0.2248 -0.6959 -0.6820
vn -0.2132 -0.3725 -0.9032
vn -0.6317 -0.7752 0.0006
vn -0.5820 -0.8132 -0.0036
vn -0.5873 -0.8093 -0.0036
vn -0.5870 -0.8096 -0.0036
vn -0.0765 -0.9971 -0.0003
vn -0.0765 -0.9971 -0.0002
vn -0.0767 -0.9971 -0.0001
vn -0.9993 -0.0368 0.0079
vn -0.9993 -0.0365 0.0081
vn -0.9993 -0.0372 0.0078
vn -0.0763 -0.9971 -0.0004
vn -0.5823 -0.8130 -0.0036
vn -0.6589 -0.7522 0.0006
vn -0.2191 -0.0152 0.9756
vn -0.0693 -0.9974 -0.0187
vn -0.2413 -0.6959 0.6764
vn -0.2350 -0.3725 0.8978
vn -0.6315 -0.7752 -0.0159
vn -0.5819 -0.8132 -0.0102
vn -0.5869 -0.8096 -0.0106
vn -0.5872 -0.8094 -0.0104
vn -0.0765 -0.9971 -0.0016
vn -0.0766 -0.9971 -0.0017
vn -0.9988 -0.0368 -0.0322
vn -0.9988 -0.0365 -0.0323
vn -0.9988 -0.0372 -0.0320
vn -0.0763 -0.9971 -0.0015
vn -0.5822 -0.8130 -0.0105
vn -0.6587 -0.7523 -0.0166
usemtl Red
s 1
f 1/1/1 2/2/2 3/3/2 4/4/1
f 4/4/3 3/3/4 5/5/4 6/6/3
f 6/6/5 5/5/6 7/7/6 8/8/5
f 8/8/7 7/7/8 9/9/8 10/10/7
f 10/10/9 9/9/10 11/11/10 12/12/9
f 12/12/11 11/11/12 13/13/12 14/14/11
f 14/14/13 13/13/14 15/15/14 16/16/13
f 16/16/15 15/15/16 2/17/16 1/18/15
f 17/19/17 18/20/17 19/21/17 20/22/17
f 21/23/18 22/24/18 23/25/18 24/26/18
f 25/27/19 17/19/19 20/22/19 26/28/19
f 22/24/20 27/29/20 28/30/20 23/25/20
f 29/31/21 30/32/21 31/33/21 32/34/21
f 18/20/22 21/23/22 24/26/22 19/21/22
f 30/32/23 25/27/23 26/28/23 31/33/23
f 7/7/24 5/5/24 33/35/24 34/36/24
f 3/3/25 2/2/25 35/37/25 36/38/25
f 2/17/26 15/15/26 37/39/26 35/40/26
f 13/13/27 11/11/27 38/41/27 39/42/27
f 9/9/28 7/7/28 34/36/28 40/43/28
f 5/5/29 3/3/29 36/38/29 33/35/29
f 15/15/30 13/13/30 39/42/30 37/39/30
f 11/11/31 9/9/31 40/43/31 38/41/31
f 36/38/32 35/37/32 29/44/32 27/29/32
f 33/35/33 36/38/33 27/29/33 22/24/33
f 34/36/34 33/35/34 22/24/34 21/23/34
f 40/43/35 34/36/35 21/23/35 18/20/35
f 38/41/36 40/43/36 18/20/36 17/19/36
f 39/42/37 38/41/37 17/19/37 25/27/37
f 37/39/38 39/42/38 25/27/38 30/32/38
f 35/40/39 37/39/39 30/32/39 29/31/39
f 27/29/40 29/44/40 32/45/40 28/30/40
f 1/1/1 4/4/1 41/46/41 42/47/41
f 4/4/3 6/6/3 43/48/42 41/46/42
f 6/6/5 8/8/5 44/49/43 43/48/43
f 8/8/7 10/10/7 45/50/44 44/49/44
f 10/10/9 12/12/9 46/51/45 45/50/45
f 12/12/11 14/14/11 47/52/46 46/51/46
f 14/14/13 16/16/13 48/53/47 47/52/47
f 16/16/15 1/18/15 42/54/48 48/53/48
f 49/55/49 50/56/49 51/57/49 52/58/49
f 53/59/50 54/60/50 55/61/50 56/62/50
f 57/63/51 58/64/51 50/56/51 49/55/51
f 56/62/52 55/61/52 59/65/52 60/66/52
f 61/67/53 62/68/53 63/69/53 64/70/53
f 52/58/54 51/57/54 54/60/54 53/59/54
f 64/70/55 63/69/55 58/64/55 57/63/55
f 44/49/56 65/71/56 66/72/56 43/48/56
f 41/46/57 67/73/57 68/74/57 42/47/57
f 42/54/58 68/75/58 69/76/58 48/53/58
f 47/52/59 70/77/59 71/78/59 46/51/59
f 45/50/60 72/79/60 65/71/60 44/49/60
f 43/48/61 66/72/61 67/73/61 41/46/61
f 48/53/62 69/76/62 70/77/62 47/52/62
f 46/51/63 71/78/63 72/79/63 45/50/63
f 67/73/64 60/66/64 61/80/64 68/74/64
f 66/72/65 56/62/65 60/66/65 67/73/65
f 65/71/66 53/59/66 56/62/66 66/72/66
f 72/79/67 52/58/67 53/59/67 65/71/67
f 71/78/68 49/55/68 52/58/68 72/79/68
f 70/77/69 57/63/69 49/55/69 71/78/69
f 69/76/70 64/70/70 57/63/70 70/77/70
f 68/75/71 61/67/71 64/70/71 69/76/71
f 60/66/72 59/65/72 62/81/72 61/80/72
usemtl Material.004
f 73/82/73 74/83/73 75/84/73 76/85/73
f 77/86/74 78/87/74 79/88/74 80/89/74
f 80/90/75 79/91/75 81/92/75 82/93/75
f 82/94/76 81/95/76 74/96/76 73/97/76
f 83/98/77 82/99/77 73/100/77 84/101/77
f 85/102/78 80/103/79 82/104/79 83/105/80
f 86/106/81 77/86/82 80/89/82 85/107/83
f 84/108/84 73/109/85 76/110/85 87/111/84
f 88/112/86 84/113/84 87/114/84 89/115/86
f 90/116/87 86/117/81 85/118/83 91/119/87
f 91/120/88 85/107/78 83/121/80 92/122/88
f 92/123/89 83/124/89 84/125/89 88/126/89
f 93/127/90 94/128/90 95/129/90 96/130/90
f 97/131/91 98/132/91 99/133/91 100/134/91
f 98/135/92 101/136/92 102/137/92 99/138/92
f 101/139/93 93/140/93 96/141/93 102/142/93
f 103/143/94 104/144/94 93/145/94 101/146/94
f 105/147/95 103/148/96 101/149/97 98/150/97
f 106/151/98 105/152/98 98/132/99 97/131/99
f 104/153/100 107/154/100 94/155/101 93/156/101
f 108/157/102 109/158/102 107/159/100 104/160/100
f 110/161/103 111/162/103 105/163/98 106/164/98
f 111/165/104 112/166/104 103/167/96 105/152/95
f 112/168/105 108/169/105 104/170/105 103/171/105
f 113/172/106 116/173/106 115/174/106 114/175/106
f 117/176/107 120/177/107 119/178/107 118/179/107
f 120/180/108 122/181/108 121/182/108 119/183/108
f 122/184/109 113/185/109 114/186/109 121/187/109
f 123/188/110 124/189/110 113/190/110 122/191/110
f 125/192/111 123/193/112 122/194/113 120/195/113
f 126/196/114 125/197/115 120/177/116 117/176/116
f 124/198/117 127/199/117 116/200/118 113/201/118
f 128/202/119 129/203/119 127/204/117 124/205/117
f 130/206/120 131/207/120 125/208/115 126/209/114
f 131/210/121 132/211/121 123/212/112 125/197/111
f 132/213/122 128/214/122 124/215/122 123/216/122
f 133/217/123 136/218/123 135/219/123 134/220/123
f 137/221/124 140/222/124 139/223/124 138/224/124
f 138/225/125 139/226/125 142/227/125 141/228/125
f 141/229/126 142/230/126 136/231/126 133/232/126
f 143/233/127 141/234/127 133/235/127 144/236/127
f 145/237/128 138/238/129 141/239/129 143/240/130
f 146/241/131 137/221/132 138/224/132 145/242/131
f 144/243/133 133/244/134 134/245/134 147/246/133
f 148/247/135 144/248/133 147/249/133 149/250/135
f 150/251/136 146/252/131 145/253/131 151/254/136
f 151/255/137 145/242/128 143/256/130 152/257/137
f 152/258/138 143/259/138 144/260/138 148/261/138
